<?xml version="1.0" encoding="utf-8"?>
<!-- Generator: Adobe Illustrator 18.1.0, SVG Export Plug-In . SVG Version: 6.00 Build 0)  -->
<svg version="1.1" xmlns="http://www.w3.org/2000/svg" xmlns:xlink="http://www.w3.org/1999/xlink" x="0px" y="0px"
	 viewBox="0 0 1562.2 2066" enable-background="new 0 0 1562.2 2066" xml:space="preserve">
<g id="Layer_2">
	<radialGradient id="SVGID_1_" cx="781.6164" cy="1032.5" r="915.6911" gradientUnits="userSpaceOnUse">
		<stop  offset="0" style="stop-color:#007F1A"/>
		<stop  offset="1" style="stop-color:#000000"/>
	</radialGradient>
	<rect x="0" fill="url(#SVGID_1_)" width="1563.2" height="2065"/>
</g>
<g id="Layer_1">
	<g>
		<path display="none" fill="#33B5A2" d="M937.5,751.5c0-6.2-5.1-11.3-11.3-11.3h-22.5c-6.2,0-11.3,5.1-11.3,11.3v31v31v13h0
			c-1.1,67.3-56.2,121.8-123.7,121.8c-67.6,0-122.7-54.4-123.7-121.8h-0.1v-13v-31v-31c0-6.2-5.1-11.3-11.3-11.3h-22.5
			c-6.2,0-11.3,5.1-11.3,11.3v62.1c0,0.8,0.1,1.6,0.3,2.4c-0.1,2.8-0.3,5.7-0.3,8.6c0,85.6,63.7,156.2,146.3,167.3v69.2h-50.6
			c-6.2,0-11.3,5.1-11.3,11.3v22.5c0,6.2,5.1,11.3,11.3,11.3h50.6h45h50.6c6.2,0,11.3-5.1,11.3-11.3v-22.5c0-6.2-5.1-11.3-11.3-11.3
			h-50.6v-69.2c82.6-11,146.3-81.7,146.3-167.3c0-2.9-0.1-5.7-0.3-8.6c0.2-0.8,0.3-1.6,0.3-2.4V751.5z"/>
		<path fill="#448085" d="M768.7,907.8c46.4,0,84.4-38,84.4-84.4V626.5c0-46.4-38-84.4-84.4-84.4c-46.4,0-84.4,38-84.4,84.4v196.9
			C684.3,869.8,722.3,907.8,768.7,907.8z"/>
	</g>
	<g>
		<path fill="#448085" d="M954.4,740.3h-22.5c-6.2,0-11.3,5.1-11.3,11.3v31v31v11.1v0.2h0c0,0.2,0,0.5,0,0.7
			c0,83.8-68.1,151.9-151.9,151.9c-83.8,0-151.9-68.1-151.9-151.9c0-0.2,0-0.5,0-0.7h0v-0.2v-11.1v-31v-31c0-6.2-5.1-11.3-11.3-11.3
			H583c-6.2,0-11.3,5.1-11.3,11.3v31v31v11.1h0c0,0.3,0,0.6,0,0.9c0,101.1,76.3,184.4,174.4,195.6v39.8h-50.6
			c-6.2,0-11.3,5.1-11.3,11.3v22.5c0,6.2,5.1,11.3,11.3,11.3h50.6h45h50.6c6.2,0,11.3-5.1,11.3-11.3v-22.5c0-6.2-5.1-11.3-11.3-11.3
			h-50.6v-39.8c98.1-11.2,174.4-94.5,174.4-195.6c0-0.3,0-0.6,0-0.9h0v-11.1v-31v-31C965.7,745.4,960.6,740.3,954.4,740.3z"/>
		<path fill="#448085" d="M768.7,942.5c65,0,118.2-53.2,118.2-118.2V660.1c0-65-53.2-118.2-118.2-118.2s-118.2,53.2-118.2,118.2
			v164.2C650.6,889.3,703.7,942.5,768.7,942.5z M768.7,897.5c-40.3,0-73.1-32.8-73.1-73.1v-74.9h3.7c1.9,0,3.9,1.4,4.4,3.2
			c0.7,2.5,1.4,5.5,1.9,7.9c2.7,12,5.7,25.7,16.6,25.7c11,0,13.1-15.9,17-44.6c0.9-6.6,2-14.8,3.2-21.8c0.3-1.8,0.9-1.8,1.3,0
			c1.2,6.7,2.4,14.8,3.4,21.6c6,40.3,10.7,64.8,25.8,64.8c15.2,0,18.5-26,23-71.9c1.2-12,2.8-28.1,4.7-38.5c0.4-1.8,1.1-1.8,1.4,0
			c1.8,8.8,3,21.6,3.8,29.8c2.4,25.7,3.8,39.8,14.3,39.8c9.8,0,13.1-8.6,14.8-13.3c0.1-0.4,0.3-0.8,0.5-1.3c0.3-0.7,2.1-1.3,3.9-1.3
			h2.7v74.9C841.9,864.7,809,897.5,768.7,897.5z M768.7,586.9c40.3,0,73.1,32.8,73.1,73.1v75.7h-7.6c-7.9,0-10.5,7.1-12.1,11.4
			c0,0,0,0.1,0,0.1c0,0.1-0.3-1.4-0.6-3.2c-0.9-6.1-1.6-13.9-2.2-20c-2.7-28.3-4.8-50.7-18.5-50.7c-12.1,0-14.2,17.1-18.4,59.4
			c-1.6,16.3-4.4,44.4-8.4,55.7c-0.6,1.8-2.2,1.8-3,0.1c-1.2-2.6-2.7-6.8-4.2-13.5c-2.5-10.5-4.4-23.4-6.3-35.8
			c-4.6-31.2-6.7-45.5-17.3-45.5c-11.4,0-13.7,17.3-17.5,45.9c-1,7.5-2.3,17.3-3.7,24.6c-0.4,1.8-1.1,1.9-1.6,0
			c-0.6-2.4-1.2-4.9-1.6-6.8c-2.5-11.2-4.8-21.7-13.9-21.7h-9.4v-75.7C695.6,619.8,728.4,586.9,768.7,586.9z"/>
	</g>
	<g>
		<path fill="#448085" d="M248.3,1287c0,39.8-32.2,72-72,72c-39.8,0-72-32.2-72-72c0-39.8,32.2-72,72-72
			C216,1215,248.3,1247.2,248.3,1287z"/>
		<polygon fill="#FFFFFF" points="216.1,1270.9 204.4,1260 160.8,1303.6 147.4,1290.3 136.3,1301.3 161.6,1325.7 		"/>
	</g>
	<g>
		<path fill="#448085" d="M412.3,1285.3c0,39.8-32.2,72-72,72c-39.8,0-72-32.2-72-72c0-39.8,32.2-72,72-72
			C380,1213.3,412.3,1245.6,412.3,1285.3z"/>
		<polygon fill="#FFFFFF" points="352.3,1285.3 375.6,1262 363.6,1250 340.3,1273.3 316.9,1250 304.9,1262 328.2,1285.3 
			304.9,1308.7 316.9,1320.7 340.3,1297.4 363.6,1320.7 375.6,1308.7 		"/>
	</g>
	<g>
		<path fill="#448085" d="M1333.3,1220c39.8,0,72,32.2,72,72c0,39.8-32.2,72-72,72c-39.8,0-72-32.2-72-72
			C1261.3,1252.2,1293.5,1220,1333.3,1220z"/>
		<g>
			<rect x="1345.3" y="1250.5" fill="#FFFFFF" width="17" height="83"/>
			<rect x="1304.3" y="1250.5" fill="#FFFFFF" width="17" height="83"/>
		</g>
	</g>
	<g display="none">
		<polygon display="inline" points="1702,914.7 1675.4,888.1 1788.8,888.1 1762.2,914.7 		"/>
		<polygon display="inline" points="1675.4,1101 1702,1074.4 1762.2,1074.4 1788.8,1101 		"/>
		<polygon display="inline" points="1672.2,978.1 1672.2,891.3 1698.8,917.9 1698.8,978.1 1685.5,991.4 		"/>
		<polygon display="inline" points="1765.4,1071.3 1765.4,1011 1778.7,997.7 1792,1011 1792,1097.9 		"/>
		<polygon display="inline" points="1702,1007.9 1688.7,994.6 1702,981.3 1762.2,981.3 1775.5,994.6 1762.2,1007.9 		"/>
	</g>
	<g display="none">
		<polygon display="inline" points="2058,914.7 2031.4,888.1 2144.8,888.1 2118.2,914.7 		"/>
		<polygon display="inline" points="2121.3,978.1 2121.3,917.9 2148,891.3 2148,978.1 2134.7,991.4 		"/>
		<polygon display="inline" points="2121.3,1071.3 2121.3,1011 2134.7,997.7 2148,1011 2148,1097.9 		"/>
	</g>
	<g display="none">
		<polygon display="inline" points="2210,977.8 2210,917.6 2223.3,904.3 2236.6,917.6 2236.6,977.8 2223.3,991.1 		"/>
		<polygon display="inline" points="2303.1,977.8 2303.1,917.6 2316.4,904.3 2329.7,917.6 2329.7,977.8 2316.4,991.1 		"/>
		<polygon display="inline" points="2210,1071 2210,1010.7 2223.3,997.4 2236.6,1010.7 2236.6,1071 2223.3,1084.3 		"/>
		<polygon display="inline" points="2303.1,1071 2303.1,1010.7 2316.4,997.4 2329.7,1010.7 2329.7,1071 2316.4,1084.3 		"/>
		<polygon display="inline" points="2300,914.7 2239.7,914.7 2226.4,901.4 2239.7,888.1 2300,888.1 2313.3,901.4 		"/>
		<polygon display="inline" points="2300,1007.6 2239.7,1007.6 2226.4,994.3 2239.7,981 2300,981 2313.3,994.3 		"/>
		<polygon display="inline" points="2300,1100.7 2239.7,1100.7 2226.4,1087.4 2239.7,1074.1 2300,1074.1 2313.3,1087.4 		"/>
	</g>
	<g display="none">
		<polygon display="inline" points="2384.2,977.8 2384.2,917.6 2397.5,904.3 2410.8,917.6 2410.8,977.8 2397.5,991.1 		"/>
		<polygon display="inline" points="2477.3,977.8 2477.3,917.6 2490.6,904.3 2503.9,917.6 2503.9,977.8 2490.6,991.1 		"/>
		<polygon display="inline" points="2477.3,1071 2477.3,1010.7 2490.6,997.4 2503.9,1010.7 2503.9,1071 2490.6,1084.3 		"/>
		<polygon display="inline" points="2474.2,914.7 2413.9,914.7 2400.6,901.4 2413.9,888.1 2474.2,888.1 2487.5,901.4 		"/>
		<polygon display="inline" points="2474.2,1007.6 2413.9,1007.6 2400.6,994.3 2413.9,981 2474.2,981 2487.5,994.3 		"/>
		<polygon display="inline" points="2474.2,1100.7 2413.9,1100.7 2400.6,1087.4 2413.9,1074.1 2474.2,1074.1 2487.5,1087.4 		"/>
	</g>
	<g display="none">
		<polygon display="inline" points="1969.7,1011 1969.7,1071.3 1956.4,1084.6 1943.1,1071.3 1943.1,1011 1956.4,997.7 		"/>
		<polygon display="inline" points="1876.6,1011 1876.6,1071.3 1863.2,1084.6 1849.9,1071.3 1849.9,1011 1863.2,997.7 		"/>
		<polygon display="inline" points="1876.6,917.9 1876.6,978.1 1863.2,991.4 1849.9,978.1 1849.9,917.9 1863.2,904.6 		"/>
		<polygon display="inline" points="1879.7,1074.1 1939.9,1074.1 1953.2,1087.4 1939.9,1100.7 1879.7,1100.7 1866.4,1087.4 		"/>
		<polygon display="inline" points="1879.7,981.3 1939.9,981.3 1953.2,994.6 1939.9,1007.9 1879.7,1007.9 1866.4,994.6 		"/>
		<polygon display="inline" points="1879.7,888.1 1939.9,888.1 1953.2,901.4 1939.9,914.7 1879.7,914.7 1866.4,901.4 		"/>
	</g>
	<g display="none">
		<polygon display="inline" points="2069.5,614.3 2042.9,587.7 2156.4,587.7 2129.8,614.3 		"/>
		<polygon display="inline" points="2042.9,800.6 2069.5,774 2129.8,774 2156.4,800.6 		"/>
		<polygon display="inline" points="2132.9,677.7 2132.9,617.5 2159.5,590.9 2159.5,677.7 2146.2,691 		"/>
		<polygon display="inline" points="2039.8,710.6 2053.1,697.3 2066.4,710.6 2066.4,770.9 2039.8,797.5 		"/>
		<polygon display="inline" points="2069.5,707.5 2056.2,694.2 2069.5,680.9 2129.8,680.9 2143.1,694.2 2129.8,707.5 		"/>
	</g>
	<g display="none">
		<polygon display="inline" points="2247.5,614.3 2220.9,587.7 2334.4,587.7 2307.8,614.3 		"/>
		<polygon display="inline" points="2220.9,800.6 2247.5,774 2307.8,774 2334.4,800.6 		"/>
		<polygon display="inline" points="2310.9,677.7 2310.9,617.5 2337.5,590.9 2337.5,677.7 2324.2,691 		"/>
		<polygon display="inline" points="2310.9,770.9 2310.9,710.6 2324.2,697.3 2337.5,710.6 2337.5,797.5 		"/>
		<polygon display="inline" points="2247.5,707.5 2234.2,694.2 2247.5,680.9 2307.8,680.9 2321.1,694.2 2307.8,707.5 		"/>
	</g>
	<g display="none">
		<polygon display="inline" fill="#EAEAEA" points="778.4,1326.8 778.4,1326.8 798,1307.2 817.6,1326.8 817.6,1326.8 798,1346.4 		
			"/>
		<g display="inline">
			<polygon fill="#EAEAEA" points="985.1,1278.9 985.1,1234.2 1004.8,1214.4 1004.8,1278.9 995,1288.7 			"/>
			<polygon fill="#EAEAEA" points="985.1,1347.9 985.1,1303.3 995,1293.4 1004.8,1303.3 1004.8,1367.7 			"/>
		</g>
		<g display="inline">
			<polygon fill="#EAEAEA" points="555.6,1292.8 555.6,1278.8 584.4,1250 598.4,1250 598.4,1264 569.6,1292.8 			"/>
			<polygon fill="#EAEAEA" points="554.7,1231.9 534.9,1212.1 619.1,1212.1 599.3,1231.9 			"/>
			<polygon fill="#EAEAEA" points="534.9,1370 554.7,1350.3 599.3,1350.3 619.1,1370 			"/>
			<polygon fill="#EAEAEA" points="532.6,1278.9 532.6,1214.4 552.3,1234.2 552.3,1278.9 542.5,1288.7 			"/>
			<polygon fill="#EAEAEA" points="601.7,1278.9 601.7,1234.2 621.4,1214.4 621.4,1278.9 611.5,1288.7 			"/>
			<polygon fill="#EAEAEA" points="532.6,1303.3 542.5,1293.4 552.3,1303.3 552.3,1347.9 532.6,1367.7 			"/>
			<polygon fill="#EAEAEA" points="601.7,1347.9 601.7,1303.3 611.5,1293.4 621.4,1303.3 621.4,1367.7 			"/>
		</g>
		<g display="inline">
			<polygon fill="#EAEAEA" points="667.6,1292.8 667.6,1278.8 696.4,1250 710.4,1250 710.4,1264 681.6,1292.8 			"/>
			<polygon fill="#EAEAEA" points="666.6,1231.9 646.9,1212.1 731.1,1212.1 711.3,1231.9 			"/>
			<polygon fill="#EAEAEA" points="646.9,1370 666.6,1350.3 711.3,1350.3 731.1,1370 			"/>
			<polygon fill="#EAEAEA" points="644.6,1278.9 644.6,1214.4 664.3,1234.2 664.3,1278.9 654.5,1288.7 			"/>
			<polygon fill="#EAEAEA" points="713.7,1278.9 713.7,1234.2 733.4,1214.4 733.4,1278.9 723.5,1288.7 			"/>
			<polygon fill="#EAEAEA" points="644.6,1303.3 654.5,1293.4 664.3,1303.3 664.3,1347.9 644.6,1367.7 			"/>
			<polygon fill="#EAEAEA" points="713.7,1347.9 713.7,1303.3 723.5,1293.4 733.4,1303.3 733.4,1367.7 			"/>
		</g>
		<polygon display="inline" fill="#EAEAEA" points="778.4,1257.1 778.4,1257.1 798,1237.5 817.6,1257.1 817.6,1257.1 798,1276.7 		
			"/>
		<g display="inline">
			<polygon fill="#EAEAEA" points="881.9,1292.8 881.9,1278.8 910.7,1250 924.7,1250 924.7,1264 895.9,1292.8 			"/>
			<polygon fill="#EAEAEA" points="881,1231.9 861.2,1212.1 945.4,1212.1 925.7,1231.9 			"/>
			<polygon fill="#EAEAEA" points="861.2,1370 881,1350.3 925.7,1350.3 945.4,1370 			"/>
			<polygon fill="#EAEAEA" points="858.9,1278.9 858.9,1214.4 878.7,1234.2 878.7,1278.9 868.8,1288.7 			"/>
			<polygon fill="#EAEAEA" points="928,1278.9 928,1234.2 947.7,1214.4 947.7,1278.9 937.9,1288.7 			"/>
			<polygon fill="#EAEAEA" points="858.9,1303.3 868.8,1293.4 878.7,1303.3 878.7,1347.9 858.9,1367.7 			"/>
			<polygon fill="#EAEAEA" points="928,1347.9 928,1303.3 937.9,1293.4 947.7,1303.3 947.7,1367.7 			"/>
		</g>
	</g>
	<g display="none">
		<g display="inline">
			<path fill="#00C6E1" d="M1233.3,1290.3c0,39.8-32.2,72-72,72c-39.8,0-72-32.2-72-72c0-39.8,32.2-72,72-72
				C1201,1218.3,1233.3,1250.6,1233.3,1290.3z"/>
		</g>
		<path display="inline" fill="#F44647" d="M1226.4,1290.3c0,35.8-29.3,65.2-65.1,65.2c-35.9,0-65.1-29.3-65.1-65.2
			c0-35.8,29.3-65.2,65.1-65.2C1197.1,1225.2,1226.4,1254.5,1226.4,1290.3z"/>
	</g>
	<g>
		<rect x="523.2" y="1275.4" fill="#5C5C5C" width="538.3" height="21.8"/>
		<rect x="523.2" y="1275.4" fill="#EAEAEC" width="303.5" height="21.8"/>
		<g>
			<g>
				<path fill="#E6E6E6" d="M439,1273c1.1,0,2.2,0.2,3.1,0.5c0.9,0.3,1.7,0.8,2.4,1.4c0.7,0.6,1.2,1.3,1.6,2.2
					c0.4,0.9,0.6,1.8,0.6,2.9c0,0.9-0.1,1.7-0.4,2.5c-0.3,0.8-0.6,1.5-1.1,2.2c-0.4,0.7-1,1.4-1.6,2c-0.6,0.7-1.2,1.3-1.9,2
					l-5.5,5.7c0.5-0.2,1.1-0.3,1.6-0.4c0.5-0.1,1-0.1,1.5-0.1h6.3c0.5,0,0.8,0.1,1.1,0.4c0.3,0.3,0.4,0.6,0.4,1v2.5h-16.9v-1.4
					c0-0.3,0.1-0.6,0.2-0.9c0.1-0.3,0.3-0.6,0.6-0.9l7.5-7.5c0.6-0.6,1.2-1.2,1.7-1.8c0.5-0.6,0.9-1.1,1.2-1.7
					c0.3-0.6,0.6-1.1,0.8-1.7c0.2-0.6,0.3-1.2,0.3-1.8c0-0.6-0.1-1.1-0.3-1.6c-0.2-0.4-0.4-0.8-0.7-1.1c-0.3-0.3-0.7-0.5-1.1-0.7
					c-0.4-0.2-0.9-0.2-1.5-0.2c-1,0-1.8,0.3-2.5,0.8c-0.7,0.5-1.1,1.2-1.4,2.1c-0.1,0.4-0.3,0.7-0.6,0.9c-0.3,0.2-0.6,0.3-1,0.3
					c-0.2,0-0.4,0-0.6-0.1l-2.2-0.4c0.2-1.2,0.5-2.2,1-3.1c0.5-0.9,1.1-1.6,1.8-2.2c0.7-0.6,1.6-1,2.5-1.3
					C436.9,1273.1,438,1273,439,1273z"/>
				<path fill="#E6E6E6" d="M450.5,1283.4c0-0.4,0.1-0.7,0.2-1c0.1-0.3,0.3-0.6,0.5-0.8c0.2-0.2,0.5-0.4,0.8-0.5
					c0.3-0.1,0.7-0.2,1-0.2c0.4,0,0.7,0.1,1,0.2c0.3,0.1,0.6,0.3,0.8,0.5c0.2,0.2,0.4,0.5,0.5,0.8c0.1,0.3,0.2,0.7,0.2,1
					c0,0.4-0.1,0.7-0.2,1c-0.1,0.3-0.3,0.6-0.5,0.8c-0.2,0.2-0.5,0.4-0.8,0.5c-0.3,0.1-0.7,0.2-1,0.2c-0.4,0-0.7-0.1-1-0.2
					c-0.3-0.1-0.6-0.3-0.8-0.5c-0.2-0.2-0.4-0.5-0.5-0.8C450.5,1284.1,450.5,1283.8,450.5,1283.4z M450.5,1295.5
					c0-0.4,0.1-0.7,0.2-1c0.1-0.3,0.3-0.6,0.5-0.8c0.2-0.2,0.5-0.4,0.8-0.5c0.3-0.1,0.7-0.2,1-0.2c0.4,0,0.7,0.1,1,0.2
					c0.3,0.1,0.6,0.3,0.8,0.5c0.2,0.2,0.4,0.5,0.5,0.8c0.1,0.3,0.2,0.7,0.2,1c0,0.4-0.1,0.7-0.2,1c-0.1,0.3-0.3,0.6-0.5,0.8
					c-0.2,0.2-0.5,0.4-0.8,0.5c-0.3,0.1-0.7,0.2-1,0.2c-0.4,0-0.7-0.1-1-0.2c-0.3-0.1-0.6-0.3-0.8-0.5c-0.2-0.2-0.4-0.5-0.5-0.8
					C450.5,1296.2,450.5,1295.9,450.5,1295.5z"/>
				<path fill="#E6E6E6" d="M467.8,1273c1.1,0,2.2,0.2,3.1,0.5c0.9,0.3,1.7,0.8,2.4,1.4c0.7,0.6,1.2,1.3,1.6,2.2
					c0.4,0.9,0.6,1.8,0.6,2.9c0,0.9-0.1,1.7-0.4,2.5c-0.3,0.8-0.6,1.5-1.1,2.2c-0.4,0.7-1,1.4-1.6,2c-0.6,0.7-1.2,1.3-1.9,2
					l-5.5,5.7c0.5-0.2,1.1-0.3,1.6-0.4c0.5-0.1,1-0.1,1.5-0.1h6.3c0.5,0,0.8,0.1,1.1,0.4c0.3,0.3,0.4,0.6,0.4,1v2.5H459v-1.4
					c0-0.3,0.1-0.6,0.2-0.9c0.1-0.3,0.3-0.6,0.6-0.9l7.5-7.5c0.6-0.6,1.2-1.2,1.7-1.8c0.5-0.6,0.9-1.1,1.2-1.7
					c0.3-0.6,0.6-1.1,0.8-1.7c0.2-0.6,0.3-1.2,0.3-1.8c0-0.6-0.1-1.1-0.3-1.6c-0.2-0.4-0.4-0.8-0.7-1.1c-0.3-0.3-0.7-0.5-1.1-0.7
					c-0.4-0.2-0.9-0.2-1.5-0.2c-1,0-1.8,0.3-2.5,0.8c-0.7,0.5-1.1,1.2-1.4,2.1c-0.1,0.4-0.3,0.7-0.6,0.9c-0.2,0.2-0.6,0.3-0.9,0.3
					c-0.2,0-0.4,0-0.6-0.1l-2.2-0.4c0.2-1.2,0.5-2.2,1-3.1c0.5-0.9,1.1-1.6,1.8-2.2c0.7-0.6,1.6-1,2.5-1.3
					C465.7,1273.1,466.7,1273,467.8,1273z"/>
				<path fill="#E6E6E6" d="M487.9,1273c1.1,0,2.2,0.2,3.1,0.5c0.9,0.3,1.7,0.8,2.3,1.3c0.6,0.6,1.1,1.2,1.5,2
					c0.3,0.8,0.5,1.6,0.5,2.5c0,0.8-0.1,1.5-0.3,2.1c-0.2,0.6-0.4,1.1-0.8,1.6c-0.3,0.4-0.7,0.8-1.2,1.1c-0.5,0.3-1,0.6-1.6,0.8
					c1.5,0.5,2.6,1.2,3.3,2.1s1.1,2.1,1.1,3.6c0,1.2-0.2,2.3-0.7,3.2c-0.5,0.9-1.1,1.7-1.8,2.4c-0.8,0.6-1.7,1.1-2.7,1.5
					c-1,0.3-2.1,0.5-3.2,0.5c-1.2,0-2.3-0.1-3.2-0.4c-0.9-0.3-1.7-0.7-2.4-1.3c-0.7-0.6-1.3-1.2-1.7-2c-0.5-0.8-0.9-1.7-1.2-2.8
					l1.9-0.8c0.3-0.1,0.6-0.2,1-0.2c0.3,0,0.6,0.1,0.8,0.2c0.2,0.1,0.4,0.3,0.5,0.5c0.2,0.4,0.4,0.8,0.7,1.2c0.2,0.4,0.5,0.7,0.9,1
					c0.3,0.3,0.7,0.5,1.2,0.7c0.5,0.2,1,0.3,1.6,0.3c0.7,0,1.3-0.1,1.9-0.3c0.5-0.2,1-0.5,1.3-0.9c0.4-0.4,0.6-0.8,0.8-1.2
					c0.2-0.5,0.3-0.9,0.3-1.4c0-0.6-0.1-1.1-0.2-1.6s-0.4-0.9-0.8-1.2c-0.4-0.3-1-0.6-1.7-0.8c-0.7-0.2-1.7-0.3-3-0.3v-3
					c1,0,1.9-0.1,2.6-0.3c0.7-0.2,1.2-0.4,1.6-0.8c0.4-0.3,0.7-0.7,0.8-1.2c0.2-0.5,0.2-1,0.2-1.5c0-1.2-0.3-2-0.9-2.6
					c-0.6-0.6-1.5-0.9-2.6-0.9c-1,0-1.8,0.3-2.5,0.8c-0.7,0.5-1.1,1.2-1.4,2c-0.1,0.4-0.3,0.7-0.6,0.9c-0.2,0.2-0.5,0.3-0.9,0.3
					c-0.2,0-0.4,0-0.6-0.1l-2.2-0.4c0.2-1.2,0.5-2.2,1-3.1c0.5-0.9,1.1-1.6,1.8-2.2c0.7-0.6,1.6-1,2.5-1.3
					C485.8,1273.1,486.8,1273,487.9,1273z"/>
			</g>
			<g>
				<path fill="#E6E6E6" d="M439,1273c1.1,0,2.2,0.2,3.1,0.5c0.9,0.3,1.7,0.8,2.4,1.4c0.7,0.6,1.2,1.3,1.6,2.2
					c0.4,0.9,0.6,1.8,0.6,2.9c0,0.9-0.1,1.7-0.4,2.5c-0.3,0.8-0.6,1.5-1.1,2.2c-0.4,0.7-1,1.4-1.6,2c-0.6,0.7-1.2,1.3-1.9,2
					l-5.5,5.7c0.5-0.2,1.1-0.3,1.6-0.4c0.5-0.1,1-0.1,1.5-0.1h6.3c0.5,0,0.8,0.1,1.1,0.4c0.3,0.3,0.4,0.6,0.4,1v2.5h-16.9v-1.4
					c0-0.3,0.1-0.6,0.2-0.9c0.1-0.3,0.3-0.6,0.6-0.9l7.5-7.5c0.6-0.6,1.2-1.2,1.7-1.8c0.5-0.6,0.9-1.1,1.2-1.7
					c0.3-0.6,0.6-1.1,0.8-1.7c0.2-0.6,0.3-1.2,0.3-1.8c0-0.6-0.1-1.1-0.3-1.6c-0.2-0.4-0.4-0.8-0.7-1.1c-0.3-0.3-0.7-0.5-1.1-0.7
					c-0.4-0.2-0.9-0.2-1.5-0.2c-1,0-1.8,0.3-2.5,0.8c-0.7,0.5-1.1,1.2-1.4,2.1c-0.1,0.4-0.3,0.7-0.6,0.9c-0.3,0.2-0.6,0.3-1,0.3
					c-0.2,0-0.4,0-0.6-0.1l-2.2-0.4c0.2-1.2,0.5-2.2,1-3.1c0.5-0.9,1.1-1.6,1.8-2.2c0.7-0.6,1.6-1,2.5-1.3
					C436.9,1273.1,438,1273,439,1273z"/>
				<path fill="#E6E6E6" d="M450.5,1283.4c0-0.4,0.1-0.7,0.2-1c0.1-0.3,0.3-0.6,0.5-0.8c0.2-0.2,0.5-0.4,0.8-0.5
					c0.3-0.1,0.7-0.2,1-0.2c0.4,0,0.7,0.1,1,0.2c0.3,0.1,0.6,0.3,0.8,0.5c0.2,0.2,0.4,0.5,0.5,0.8c0.1,0.3,0.2,0.7,0.2,1
					c0,0.4-0.1,0.7-0.2,1c-0.1,0.3-0.3,0.6-0.5,0.8c-0.2,0.2-0.5,0.4-0.8,0.5c-0.3,0.1-0.7,0.2-1,0.2c-0.4,0-0.7-0.1-1-0.2
					c-0.3-0.1-0.6-0.3-0.8-0.5c-0.2-0.2-0.4-0.5-0.5-0.8C450.5,1284.1,450.5,1283.8,450.5,1283.4z M450.5,1295.5
					c0-0.4,0.1-0.7,0.2-1c0.1-0.3,0.3-0.6,0.5-0.8c0.2-0.2,0.5-0.4,0.8-0.5c0.3-0.1,0.7-0.2,1-0.2c0.4,0,0.7,0.1,1,0.2
					c0.3,0.1,0.6,0.3,0.8,0.5c0.2,0.2,0.4,0.5,0.5,0.8c0.1,0.3,0.2,0.7,0.2,1c0,0.4-0.1,0.7-0.2,1c-0.1,0.3-0.3,0.6-0.5,0.8
					c-0.2,0.2-0.5,0.4-0.8,0.5c-0.3,0.1-0.7,0.2-1,0.2c-0.4,0-0.7-0.1-1-0.2c-0.3-0.1-0.6-0.3-0.8-0.5c-0.2-0.2-0.4-0.5-0.5-0.8
					C450.5,1296.2,450.5,1295.9,450.5,1295.5z"/>
				<path fill="#E6E6E6" d="M467.8,1273c1.1,0,2.2,0.2,3.1,0.5c0.9,0.3,1.7,0.8,2.4,1.4c0.7,0.6,1.2,1.3,1.6,2.2
					c0.4,0.9,0.6,1.8,0.6,2.9c0,0.9-0.1,1.7-0.4,2.5c-0.3,0.8-0.6,1.5-1.1,2.2c-0.4,0.7-1,1.4-1.6,2c-0.6,0.7-1.2,1.3-1.9,2
					l-5.5,5.7c0.5-0.2,1.1-0.3,1.6-0.4c0.5-0.1,1-0.1,1.5-0.1h6.3c0.5,0,0.8,0.1,1.1,0.4c0.3,0.3,0.4,0.6,0.4,1v2.5H459v-1.4
					c0-0.3,0.1-0.6,0.2-0.9c0.1-0.3,0.3-0.6,0.6-0.9l7.5-7.5c0.6-0.6,1.2-1.2,1.7-1.8c0.5-0.6,0.9-1.1,1.2-1.7
					c0.3-0.6,0.6-1.1,0.8-1.7c0.2-0.6,0.3-1.2,0.3-1.8c0-0.6-0.1-1.1-0.3-1.6c-0.2-0.4-0.4-0.8-0.7-1.1c-0.3-0.3-0.7-0.5-1.1-0.7
					c-0.4-0.2-0.9-0.2-1.5-0.2c-1,0-1.8,0.3-2.5,0.8c-0.7,0.5-1.1,1.2-1.4,2.1c-0.1,0.4-0.3,0.7-0.6,0.9c-0.2,0.2-0.6,0.3-0.9,0.3
					c-0.2,0-0.4,0-0.6-0.1l-2.2-0.4c0.2-1.2,0.5-2.2,1-3.1c0.5-0.9,1.1-1.6,1.8-2.2c0.7-0.6,1.6-1,2.5-1.3
					C465.7,1273.1,466.7,1273,467.8,1273z"/>
				<path fill="#E6E6E6" d="M487.9,1273c1.1,0,2.2,0.2,3.1,0.5c0.9,0.3,1.7,0.8,2.3,1.3c0.6,0.6,1.1,1.2,1.5,2
					c0.3,0.8,0.5,1.6,0.5,2.5c0,0.8-0.1,1.5-0.3,2.1c-0.2,0.6-0.4,1.1-0.8,1.6c-0.3,0.4-0.7,0.8-1.2,1.1c-0.5,0.3-1,0.6-1.6,0.8
					c1.5,0.5,2.6,1.2,3.3,2.1s1.1,2.1,1.1,3.6c0,1.2-0.2,2.3-0.7,3.2c-0.5,0.9-1.1,1.7-1.8,2.4c-0.8,0.6-1.7,1.1-2.7,1.5
					c-1,0.3-2.1,0.5-3.2,0.5c-1.2,0-2.3-0.1-3.2-0.4c-0.9-0.3-1.7-0.7-2.4-1.3c-0.7-0.6-1.3-1.2-1.7-2c-0.5-0.8-0.9-1.7-1.2-2.8
					l1.9-0.8c0.3-0.1,0.6-0.2,1-0.2c0.3,0,0.6,0.1,0.8,0.2c0.2,0.1,0.4,0.3,0.5,0.5c0.2,0.4,0.4,0.8,0.7,1.2c0.2,0.4,0.5,0.7,0.9,1
					c0.3,0.3,0.7,0.5,1.2,0.7c0.5,0.2,1,0.3,1.6,0.3c0.7,0,1.3-0.1,1.9-0.3c0.5-0.2,1-0.5,1.3-0.9c0.4-0.4,0.6-0.8,0.8-1.2
					c0.2-0.5,0.3-0.9,0.3-1.4c0-0.6-0.1-1.1-0.2-1.6s-0.4-0.9-0.8-1.2c-0.4-0.3-1-0.6-1.7-0.8c-0.7-0.2-1.7-0.3-3-0.3v-3
					c1,0,1.9-0.1,2.6-0.3c0.7-0.2,1.2-0.4,1.6-0.8c0.4-0.3,0.7-0.7,0.8-1.2c0.2-0.5,0.2-1,0.2-1.5c0-1.2-0.3-2-0.9-2.6
					c-0.6-0.6-1.5-0.9-2.6-0.9c-1,0-1.8,0.3-2.5,0.8c-0.7,0.5-1.1,1.2-1.4,2c-0.1,0.4-0.3,0.7-0.6,0.9c-0.2,0.2-0.5,0.3-0.9,0.3
					c-0.2,0-0.4,0-0.6-0.1l-2.2-0.4c0.2-1.2,0.5-2.2,1-3.1c0.5-0.9,1.1-1.6,1.8-2.2c0.7-0.6,1.6-1,2.5-1.3
					C485.8,1273.1,486.8,1273,487.9,1273z"/>
			</g>
		</g>
	</g>
	<g>
		<path fill="#448085" d="M1234.3,1290c0,39.8-32.2,72-72,72c-39.8,0-72-32.2-72-72c0-39.8,32.2-72,72-72
			C1202,1218,1234.3,1250.2,1234.3,1290z"/>
		<polygon fill="#FFFFFF" points="1206.3,1292.9 1175.8,1310.5 1145.3,1328.1 1145.3,1292.9 1145.3,1257.6 1175.8,1275.3 		"/>
	</g>
</g>
</svg>
