<?xml version="1.0" encoding="utf-8"?>
<!-- Generator: Adobe Illustrator 18.1.0, SVG Export Plug-In . SVG Version: 6.00 Build 0)  -->
<svg version="1.1" id="Layer_1" xmlns="http://www.w3.org/2000/svg" xmlns:xlink="http://www.w3.org/1999/xlink" x="0px" y="0px"
	 viewBox="0 0 372 322" enable-background="new 0 0 372 322" xml:space="preserve">
<polygon fill="#468186" points="231.2,190.9 282.2,290.3 105.7,187.2 "/>
<g>
	<path fill="#EB8D29" d="M14.1,193c0-32.8,29-60.1,68.1-67.8c4,46.8,49,84.8,106.7,91.5c-12.5,27-45.7,46.3-84.7,46.3
		c-4,0-7.9-0.2-11.7-0.6l-51.9,30.3l19.8-38.5C32.7,242.1,14.1,219.3,14.1,193z"/>
</g>
<path fill="#61B2BB" d="M62.8,137.8c0,63.7,66.5,115.3,148.5,115.3c82,0,148.5-51.6,148.5-115.3c0-63.7-66.5-115.3-148.5-115.3
	C129.3,22.4,62.8,74.1,62.8,137.8z"/>
<rect x="154.1" y="192.4" fill="#468186" width="6.3" height="19"/>
<path fill="#35182D" d="M184.8,182.9c0,4.7-3.8,8.4-8.4,8.4H98.6V143h86.3V182.9z"/>
<rect x="98.6" y="103.5" fill="#ED8028" width="86.3" height="39.5"/>
<path fill="#35182D" d="M98.6,103.5V72.9h77.8c4.7,0,8.4,3.8,8.4,8.4v22.2H98.6z"/>
<rect x="153.6" y="72.9" fill="#468186" width="7.3" height="118.5"/>
<g>
	<g>
		<g>
			
				<rect x="232.3" y="96.7" transform="matrix(1 -1.981794e-03 1.981794e-03 1 -0.1932 0.4666)" fill="#F0BA63" width="6.1" height="2"/>
		</g>
	</g>
	<g>
		<g>
			
				<rect x="320.8" y="87.4" transform="matrix(-1.673503e-03 -1 1 -1.673503e-03 223.7531 422.5763)" fill="#F0BA63" width="4.1" height="24.4"/>
		</g>
	</g>
	<g>
		<g>
			
				<rect x="225.3" y="101.7" transform="matrix(1 -1.997090e-03 1.997090e-03 1 -0.2757 0.5639)" fill="#EB8D29" width="113.9" height="73.2"/>
		</g>
	</g>
	<g>
		<g>
			
				<rect x="221.2" y="101.7" transform="matrix(1 -2.000502e-03 2.000502e-03 1 -0.2273 0.5647)" fill="#252C3D" width="122" height="24.4"/>
		</g>
	</g>
	<g>
		<g>
			<polygon fill="#2B3B49" points="306.6,140.3 257.8,140.4 259.8,101.8 304.5,101.7 			"/>
		</g>
	</g>
	<g>
		<g>
			<circle fill="#468186" cx="282.2" cy="142.4" r="24.4"/>
		</g>
	</g>
	<g>
		
			<rect x="221.3" y="164.3" transform="matrix(1 -2.005351e-03 2.005351e-03 1 -0.341 0.5664)" fill="#252C3D" width="122" height="12.2"/>
	</g>
	<g>
		<g>
			<polygon fill="#252C3D" points="304.5,101.7 259.8,101.8 268.9,85.5 295.3,85.4 			"/>
		</g>
	</g>
	<g>
		<g>
			<path fill="#FFFFFF" d="M282.2,122.1c11.2,0,20.4,9.1,20.4,20.3c0,11.2-9.1,20.4-20.3,20.4c-11.2,0-20.4-9.1-20.4-20.3
				C261.9,131.2,271,122.1,282.2,122.1L282.2,122.1z M282.2,113.9c-15.7,0-28.4,12.8-28.4,28.5c0,15.7,12.8,28.4,28.5,28.4
				c15.7,0,28.4-12.8,28.4-28.5C310.7,126.6,297.9,113.9,282.2,113.9L282.2,113.9z"/>
		</g>
	</g>
	<g>
		<g>
			<path fill="#252C3D" d="M282.2,126.1c9,0,16.3,7.3,16.3,16.2c0,9-7.3,16.3-16.2,16.3c-9,0-16.3-7.3-16.3-16.2
				C265.9,133.4,273.2,126.1,282.2,126.1L282.2,126.1z M282.2,118c-13.5,0-24.4,11-24.4,24.5c0,13.5,11,24.4,24.5,24.4
				c13.5,0,24.4-11,24.4-24.5C306.6,128.9,295.7,118,282.2,118L282.2,118z"/>
		</g>
	</g>
	<g>
		<g>
			<polygon fill="#FFFFFF" points="325.5,107.1 320.1,107.1 314.7,107.1 314.7,117.9 320.1,117.9 325.6,117.9 331,117.9 331,107 			
				"/>
		</g>
	</g>
	<g>
		<g>
			
				<rect x="229.3" y="97.7" transform="matrix(1 -1.923887e-03 1.923887e-03 1 -0.1915 0.453)" fill="#252C3D" width="12.2" height="4.1"/>
		</g>
	</g>
	<g>
		<g>
			<polygon fill="#F0BA63" points="245.5,95.7 245.5,97.7 245.5,99.8 245.5,101.8 257.7,101.8 257.7,99.7 257.7,97.7 257.7,95.7 			
				"/>
		</g>
	</g>
	<g>
		<g>
			<circle fill="#FFFFFF" cx="245.6" cy="135.2" r="3.2"/>
		</g>
	</g>
	<g>
		<g>
			<rect x="319.6" y="107.1" fill="#252C3D" width="1" height="10.8"/>
		</g>
	</g>
	<g>
		<g>
			<rect x="325" y="107.1" fill="#252C3D" width="1" height="10.8"/>
		</g>
	</g>
</g>
<path fill="#35182D" d="M204.1,205.5c0.3,0.5,0.7,0.5,1,0l2.8-5.3l-6.4,0L204.1,205.5z"/>
<g>
	<g>
		<path fill="#ED8028" d="M202.9,81.4l-0.6,101.8c0.1,0.1,0.1,0.2,0.2,0.4c0.6-1.3,1.4-2.1,2.2-2.1c0.8,0,1.5,0.7,2.1,1.9l0.6-102
			L202.9,81.4z"/>
		<path fill="#ED8028" d="M208.3,81.4l-0.7,100.8c0.4-0.5,0.9-0.8,1.4-0.8c1.2,0,2.3,1.6,2.9,4.2l0.6-104.2L208.3,81.4z"/>
		<path fill="#ED8028" d="M198.4,81.3l-0.6,102.3c0.7-1.8,1.7-2.2,2.5-2.2c0.5,0,0.8,0,1.2,0.5l0.3-100.5L198.4,81.3z"/>
	</g>
	<path fill="#ED8028" d="M198.5,193.3l2.6,5.3l7.6,0.1l2.7-5.3c0.3-0.6,0.6-1.7,0.6-2.5l0-0.4c-0.3-4-1.5-7-2.9-7
		c-0.9,0-1.7,1.1-2.2,2.9c-0.5-1.8-1.3-2.9-2.2-3c-0.9,0-1.7,1.1-2.2,2.9c-0.5-1.8-1.3-2.9-2.2-3c-1.2,0-2,1.2-2.5,3.2l0,4.2
		C197.9,191.6,198.2,192.7,198.5,193.3z"/>
</g>
<g>
	<path fill="#468186" d="M212.7,73.6c0-5.1-3.1-9.2-7-9.3c-3.9-0.1-7.1,4-7.2,9.1l-0.1,6.7l14.3,0.2L212.7,73.6z"/>
</g>
</svg>
