<?xml version="1.0" encoding="utf-8"?>
<!-- Generator: Adobe Illustrator 18.1.0, SVG Export Plug-In . SVG Version: 6.00 Build 0)  -->
<svg version="1.1" id="Layer_1" xmlns="http://www.w3.org/2000/svg" xmlns:xlink="http://www.w3.org/1999/xlink" x="0px" y="0px"
	 viewBox="0 0 503.5 92.5" enable-background="new 0 0 503.5 92.5" xml:space="preserve">
<g>
	<path fill="#21B6EA" d="M498.3,87.7c0,1.5-1.2,2.7-2.7,2.7H9.8c-1.5,0-2.7-1.2-2.7-2.7v-76C7.1,10.2,8.3,9,9.8,9h485.8
		c1.5,0,2.7,1.2,2.7,2.7V87.7z"/>
	<rect x="84" y="15.8" fill="#FFFFFF" width="0.8" height="67.9"/>
	<text transform="matrix(1 0 0 1 113.7837 60.8545)" fill="#FFFFFF" font-family="'MyriadPro-Regular'" font-size="37.998">Sign in with Twitter</text>
	<g>
		<path fill="#FFFFFF" d="M66.4,31.6c-1.8,1.1-3.9,1.9-6,2.3c-1.7-1.8-4.2-3-6.9-3c-5.2,0-9.5,4.2-9.5,9.5c0,0.7,0.1,1.5,0.2,2.2
			c-7.9-0.4-14.8-4.2-19.5-9.9c-0.8,1.4-1.3,3-1.3,4.8c0,3.3,1.7,6.2,4.2,7.9c-1.6,0-3-0.5-4.3-1.2c0,0,0,0.1,0,0.1
			c0,4.6,3.3,8.4,7.6,9.3c-0.8,0.2-1.6,0.3-2.5,0.3c-0.6,0-1.2-0.1-1.8-0.2c1.2,3.8,4.7,6.5,8.8,6.6c-3.2,2.5-7.3,4.1-11.8,4.1
			c-0.8,0-1.5,0-2.3-0.1c4.2,2.7,9.2,4.3,14.5,4.3C53.5,68.5,63,54,63,41.5c0-0.4,0-0.8,0-1.2c1.8-1.3,3.5-3,4.7-4.9
			c-1.7,0.8-3.5,1.3-5.4,1.5C64.2,35.7,65.7,33.9,66.4,31.6z"/>
	</g>
</g>
</svg>
