<?xml version="1.0" encoding="utf-8"?>
<!-- Generator: Adobe Illustrator 18.1.0, SVG Export Plug-In . SVG Version: 6.00 Build 0)  -->
<svg version="1.1" id="Layer_1" xmlns="http://www.w3.org/2000/svg" xmlns:xlink="http://www.w3.org/1999/xlink" x="0px" y="0px"
	 viewBox="0 0 503.5 92.5" enable-background="new 0 0 503.5 92.5" xml:space="preserve">
<g>
	<path fill="#627AA2" d="M497.3,84.3c0,1.5-1.2,2.7-2.7,2.7H8.8c-1.5,0-2.7-1.2-2.7-2.7v-76c0-1.5,1.2-2.7,2.7-2.7h485.8
		c1.5,0,2.7,1.2,2.7,2.7V84.3z"/>
	<rect x="83" y="12.4" fill="#FFFFFF" width="0.8" height="67.9"/>
	<text transform="matrix(1 0 0 1 112.7837 57.4746)" fill="#FFFFFF" font-family="'MyriadPro-Regular'" font-size="37.998">Sign in with Facebook</text>
	<g>
		<path fill="#FFFFFF" d="M39.3,69.4h9.6c0,0,0-12.7,0-23.1h6.5l0.8-8.1h-7.3v-4.8c0-1.8,1.2-2.2,2-2.2c0.8,0,5.2,0,5.2,0v-7.9
			l-7.1,0c-7.9,0-9.7,5.9-9.7,9.7v5.3h-4.6v8.1h4.6C39.3,56.8,39.3,69.4,39.3,69.4z"/>
	</g>
</g>
</svg>
