<?xml version="1.0" encoding="utf-8"?>
<!-- Generator: Adobe Illustrator 18.1.0, SVG Export Plug-In . SVG Version: 6.00 Build 0)  -->
<svg version="1.1" id="Layer_1" xmlns="http://www.w3.org/2000/svg" xmlns:xlink="http://www.w3.org/1999/xlink" x="0px" y="0px"
	 viewBox="0 0 503.5 92.5" enable-background="new 0 0 503.5 92.5" xml:space="preserve">
<g>
	<path fill="#D04A2A" d="M498.3,87c0,1.5-1.2,2.7-2.7,2.7H9.8c-1.5,0-2.7-1.2-2.7-2.7V11c0-1.5,1.2-2.7,2.7-2.7h485.8
		c1.5,0,2.7,1.2,2.7,2.7V87z"/>
	<rect x="84" y="15.1" fill="#FFFFFF" width="0.8" height="67.9"/>
	<text transform="matrix(1 0 0 1 113.7837 60.165)" fill="#FFFFFF" font-family="'MyriadPro-Regular'" font-size="37.998">Sign in with Google</text>
	<path fill="#FFFFFF" d="M39.9,71.3c2,0.5,4.1,0.8,6.3,0.8c2,0,3.8-0.3,5.6-0.8c5.4-1.6,8.9-5.5,8.9-10.1c0-4.4-1.4-7-5.2-9.7
		c-1.6-1.2-3.1-2.8-3.1-3.4c0-0.9,0.1-1.4,2.2-3.1c2.7-2.1,4.3-5,4.3-8c0-2.7-0.8-5.1-2.2-6.8h1.1c0.2,0,0.4-0.1,0.6-0.2l3-2.2
		c0.4-0.3,0.5-0.8,0.4-1.2c-0.1-0.4-0.6-0.7-1-0.7H47c-1.5,0-3,0.3-4.5,0.8c-5,1.7-8.4,5.9-8.4,10.3c0,6.1,4.8,10.8,11.1,11
		c-0.1,0.5-0.2,1-0.2,1.4c0,0.9,0.2,1.8,0.7,2.7c-0.1,0-0.1,0-0.2,0c-6.1,0-11.6,3-13.6,7.4c-0.5,1.2-0.8,2.3-0.8,3.5
		c0,1.1,0.3,2.2,0.9,3.2C33.3,68.6,36.1,70.4,39.9,71.3z M41.1,36.8c-0.3-2.3,0.2-4.3,1.3-5.6c0.7-0.8,1.7-1.3,2.7-1.3l0.1,0
		c3,0.1,5.9,3.4,6.4,7.5c0.3,2.3-0.2,4.4-1.3,5.7c-0.7,0.8-1.7,1.3-2.8,1.3c0,0,0,0,0,0h-0.1C44.6,44.4,41.7,40.9,41.1,36.8z
		 M46.9,55.5H47c1,0,2,0.2,2.9,0.4c0.3,0.2,0.6,0.4,0.9,0.6c2.1,1.5,3.6,2.4,4,4c0.1,0.4,0.1,0.8,0.1,1.2c0,4-3,6-8.8,6
		c-4.5,0-7.9-2.7-7.9-6.2C38.2,58.3,42.3,55.5,46.9,55.5z"/>
</g>
</svg>
