<?xml version="1.0" encoding="utf-8"?>
<!-- Generator: Adobe Illustrator 18.1.0, SVG Export Plug-In . SVG Version: 6.00 Build 0)  -->
<svg version="1.1" xmlns="http://www.w3.org/2000/svg" xmlns:xlink="http://www.w3.org/1999/xlink" x="0px" y="0px"
	 viewBox="0 0 1562.2 2066" enable-background="new 0 0 1562.2 2066" xml:space="preserve">
<g id="Layer_2" display="none">
	<radialGradient id="SVGID_1_" cx="781.6164" cy="1032.5" r="915.6911" gradientUnits="userSpaceOnUse">
		<stop  offset="0" style="stop-color:#007F1A"/>
		<stop  offset="1" style="stop-color:#000000"/>
	</radialGradient>
	<rect x="0" display="inline" fill="url(#SVGID_1_)" width="1563.2" height="2065"/>
</g>
<g id="Layer_1">
	<g>
		<g>
			<g>
				<rect x="0" y="2" fill="#F8FBFA" width="1562.2" height="2066"/>
				<rect x="1.9" y="1672.3" fill="#90B17E" width="1560.3" height="23.8"/>
				<rect x="1.9" y="1947.5" fill="#90B17E" width="1560.3" height="23.8"/>
				<rect x="1.9" y="1393.6" fill="#90B17E" width="1560.3" height="23.8"/>
				<rect x="1.9" y="1115" fill="#90B17E" width="1560.3" height="23.8"/>
				<rect x="1.9" y="836.3" fill="#90B17E" width="1560.3" height="23.8"/>
				<rect x="1.9" y="557.7" fill="#90B17E" width="1560.3" height="23.8"/>
				<rect x="1.9" y="279.1" fill="#90B17E" width="1560.3" height="23.8"/>
				<rect x="262.3" fill="#3C8989" width="20.1" height="2066"/>
				<rect x="0" y="1533.2" fill="#90B17E" width="1560.3" height="23.8"/>
				<rect x="0" y="1808.4" fill="#90B17E" width="1560.3" height="23.8"/>
				<rect x="0" y="1254.6" fill="#90B17E" width="1560.3" height="23.8"/>
				<rect x="0" y="975.9" fill="#90B17E" width="1560.3" height="23.8"/>
				<rect x="0" y="697.3" fill="#90B17E" width="1560.3" height="23.8"/>
				<rect x="0" y="418.6" fill="#90B17E" width="1560.3" height="23.8"/>
				<rect x="0" y="140" fill="#90B17E" width="1560.3" height="23.8"/>
			</g>
		</g>
	</g>
</g>
</svg>
