<?xml version="1.0" encoding="utf-8"?>
<!-- Generator: Adobe Illustrator 18.1.0, SVG Export Plug-In . SVG Version: 6.00 Build 0)  -->
<svg version="1.1" id="Layer_1" xmlns="http://www.w3.org/2000/svg" xmlns:xlink="http://www.w3.org/1999/xlink" x="0px" y="0px"
	 viewBox="0 0 528.4 125.3" enable-background="new 0 0 528.4 125.3" xml:space="preserve">
<g>
	<path fill="#333333" d="M96.8,17H57.4v102.3H41.5V17H2.1V2.9h94.7V17z"/>
	<path fill="#333333" d="M182.6,81.6h-61.8c0,18.5,7.9,27.8,23.8,27.8c5.6,0,10.6-1.5,14.9-4.4c4.3-2.9,6.8-7,7.5-12.3h14.6
		c-1.4,8.9-5.6,16-12.5,21.2c-6.9,5.2-15,7.8-24.1,7.8c-13,0-23-4.1-29.9-12.3c-6.5-7.6-9.7-18.1-9.7-31.5c0-13.4,3.3-24.2,10-32.4
		c7.3-8.9,17.5-13.4,30.8-13.4c13.1,0,22.8,5.2,28.9,15.7C180,56.1,182.6,67.4,182.6,81.6z M167.6,69.9c0-7.5-1.8-13.5-5.5-18
		c-4-4.7-9.7-7-17.1-7c-6.9,0-12.7,2.4-17.3,7.2c-4.6,4.8-7,10.7-7,17.8H167.6z"/>
	<path fill="#333333" d="M197.9,119.2V34.4h14.6v71.3h40.1v13.6H197.9z"/>
	<path fill="#333333" d="M263.5,119.2V34.4h14.6v71.3h40.1v13.6H263.5z"/>
	<path fill="#333333" d="M329.4,119.2V34.4H344v84.9H329.4z"/>
	<path fill="#333333" d="M432.9,119.2h-14.4V65c0-13.4-5.9-20.1-17.6-20.1c-6.9,0-12.5,2.6-16.7,7.9c-3.9,4.8-5.8,10.7-5.8,17.8
		v48.6h-14.4V34.6h13.6v12.1c4-5.2,7.8-8.8,11.4-10.9c4.1-2.5,9.2-3.7,15.1-3.7c8.7,0,15.7,2.4,20.9,7.3c5.3,4.9,7.9,11.6,7.9,20.2
		V119.2z"/>
	<path fill="#333333" d="M516.1,119.4l-1.9-8.5c-6.7,7-15.6,10.6-26.6,10.6c-12.2,0-21.8-4.5-28.9-13.6c-6.5-8.2-9.7-18.5-9.7-31
		c0-12.8,3.5-23.4,10.4-31.7c7.4-8.8,17.3-13.2,29.8-13.2c9.7,0,17.9,2.6,24.5,7.9c7,5.6,11,13.2,11.8,22.7h-14.1
		c-2.7-11.4-10.1-17.1-22.2-17.1c-8.5,0-14.9,3.2-19.4,9.7c-3.8,5.6-5.6,12.9-5.6,21.8c0,20.8,8.5,31.2,25.3,31.2
		c7,0,12.6-2.1,16.5-6.2c4-4.1,6.2-9.7,6.5-16.9h-25.2V72.1h39.3v47.4H516.1z"/>
</g>
</svg>
